<svg xmlns="http://www.w3.org/2000/svg" version="1.1" xmlns:xlink="http://www.w3.org/1999/xlink" xmlns:svgjs="http://svgjs.dev/svgjs" width="1000" height="1000" viewBox="0 0 1000 1000"><rect width="1000" height="1000" fill="#ffffff"></rect><g transform="matrix(0.7,0,0,0.7,149.57575757575756,379.77526506832083)"><svg viewBox="0 0 396 136" data-background-color="#ffffff" preserveAspectRatio="xMidYMid meet" height="343" width="1000" xmlns="http://www.w3.org/2000/svg" xmlns:xlink="http://www.w3.org/1999/xlink"><g id="tight-bounds" transform="matrix(1,0,0,1,0.2400000000000091,0.09897522160918015)"><svg viewBox="0 0 395.52 135.80204955678164" height="135.80204955678164" width="395.52"><g><svg viewBox="0 0 395.52 135.80204955678164" height="135.80204955678164" width="395.52"><g><svg viewBox="0 0 397.4975999999999 136.48105980456552" height="135.80204955678164" width="395.52"><g><rect width="397.4975999999999" height="4.180234602492968" x="0" y="75.00399069133975" fill="#152232" opacity="1" stroke-width="0" stroke="transparent" fill-opacity="1" class="rect-r$-0" data-fill-palette-color="primary" rx="1%" id="r$-0" data-palette-color="#152232"></rect></g><g transform="matrix(1,0,0,1,0.9887999999999693,90.12724781344782)"><svg viewBox="0 0 395.52 46.35381199111769" height="46.35381199111769" width="395.52"><g id="textblocktransform"><svg viewBox="0 0 395.52 46.35381199111769" height="46.35381199111769" width="395.52" id="textblock"><g><svg viewBox="0 0 395.52 46.35381199111769" height="46.35381199111769" width="395.52"><g transform="matrix(1,0,0,1,0,0)"><svg width="395.52" viewBox="4 -35 405.26 47.5" height="46.35381199111769" data-palette-color="#152232"><path d="M23.35-25.6L23.35-25.6Q23.35-18.4 18.4-15.95L18.4-15.95 25.95 0 22.3 0 15.2-14.9Q13.4-14.6 11.25-14.6L11.25-14.6 7.4-14.6 7.4 0 4 0 4-35 11.25-35Q17.35-35 20.15-33.1L20.15-33.1Q23.35-30.95 23.35-25.6ZM11-32.25L7.4-32.25 7.4-17.35 11-17.35Q15.45-17.35 17.7-19.15 19.95-20.95 19.95-25.4L19.95-25.4Q19.95-31.1 14.75-32L14.75-32Q13.1-32.25 11-32.25L11-32.25ZM31.35-12.3L31.35-11.5Q31.35-2.7 39.75-2.7L39.75-2.7Q43.3-2.7 46.25-3.65L46.25-3.65Q47-3.9 47.3-4.05L47.3-4.05 48.05-1.4Q46.3-0.35 41.7 0.1L41.7 0.1Q40.4 0.2 38.95 0.2L38.95 0.2Q34.75 0.2 31.95-1.9L31.95-1.9Q28.1-4.75 28.1-11.4 28.1-18.05 31.57-21.63 35.05-25.2 40-25.2 44.95-25.2 47.45-22L47.45-22Q49.35-19.45 49.35-15.25L49.35-15.25Q49.35-14.25 49.25-13.15L49.25-13.15 31.4-13.15Q31.35-12.75 31.35-12.3L31.35-12.3ZM40.2-22.1L40.2-22.1Q37.1-22.1 34.9-20.23 32.7-18.35 31.85-15.4L31.85-15.4 46.4-15.4Q46.15-20.95 42.1-21.85L42.1-21.85Q41.2-22.1 40.2-22.1ZM69.15-24.5L68.34-21.7Q66.55-22.3 63.45-22.3 60.35-22.3 58.65-21.2 56.95-20.1 56.95-18.48 56.95-16.85 57.95-16.1 58.95-15.35 60.45-14.83 61.95-14.3 63.72-13.8 65.5-13.3 67-12.5L67-12.5Q70.5-10.7 70.5-7.15 70.5-3.6 68.07-1.7 65.65 0.2 61 0.2L61 0.2Q58.65 0.2 56.47-0.28 54.3-0.75 53.15-1.6L53.15-1.6 54.25-4.25Q55.4-3.25 58.9-2.8L58.9-2.8Q60-2.65 61.15-2.65L61.15-2.65Q63.75-2.65 65.5-3.73 67.25-4.8 67.25-7L67.25-7Q67.25-8.5 66.25-9.35 65.25-10.2 63.75-10.78 62.25-11.35 60.47-11.8 58.7-12.25 57.2-12.98 55.7-13.7 54.7-14.88 53.7-16.05 53.7-18.05L53.7-18.05Q53.7-21.3 56.2-23.25 58.7-25.2 62.9-25.2L62.9-25.2Q63.95-25.2 65.05-25.08 66.15-24.95 67.05-24.85L67.05-24.85 69.15-24.5ZM85.24-3.6L85.84-0.9Q84.94 0 82.59 0L82.59 0Q79.29 0 78.14-1.7L78.14-1.7Q76.19-3.55 76.19-6.7L76.19-6.7 76.19-22.1 73.39-22.1 73.84-25 76.19-25 76.19-29.95 79.44-30.25 79.44-25 85.24-25 85.24-22.1 79.44-22.1 79.44-5.9Q79.44-3 82.44-3L82.44-3Q83.74-3 85.24-3.6L85.24-3.6ZM90.24-19.9L89.34-22.3Q94.79-25 98.89-25.15L98.89-25.15Q102.14-25.15 103.92-24.33 105.69-23.5 106.79-22.03 107.89-20.55 107.89-17.9L107.89-17.9 107.89 0 104.64 0 104.64-1.9Q97.79 0.2 95.84 0.2L95.84 0.2Q95.74 0.2 95.69 0.2L95.69 0.2Q91.19 0.2 89.54-2.55L89.54-2.55Q88.94-3.55 88.87-4.5 88.79-5.45 88.79-6.1L88.79-6.1Q88.79-7.9 90.19-9.33 91.59-10.75 93.54-11.25L93.54-11.25Q96.84-12.1 104.64-12.75L104.64-12.75 104.64-16.8Q104.64-22.25 98.94-22.25L98.94-22.25Q94.94-22.25 90.24-19.9L90.24-19.9ZM91.84-5.7L91.84-5.7Q91.84-2.1 96.79-2.1L96.79-2.1Q100.74-2.1 104.64-3.8L104.64-3.8 104.64-10.95Q96.84-9.85 94.99-9.25L94.99-9.25Q91.84-8.25 91.84-5.7ZM118.79-3.2L118.79-3.2Q119.89-2.8 122.29-2.8 124.69-2.8 128.49-4.75L128.49-4.75 128.49-25 131.74-25.25 131.74 0 128.49 0 128.49-2.7Q124.79 0.15 120.94 0.15L120.94 0.15Q116.14 0.15 113.99-2.7L113.99-2.7Q112.89-4.1 112.89-6.6L112.89-6.6 112.89-25 116.14-25.25 116.14-7.45Q116.14-4.35 118.79-3.2ZM152.59-24.5L151.29-21.5Q150.49-21.95 149.59-21.95 148.69-21.95 148.59-21.9L148.59-21.9Q146.69-21.9 144.76-20.53 142.84-19.15 141.49-17.45L141.49-17.45 141.49 0 138.24 0 138.24-25 141.49-25.25 141.49-19.65Q143.34-22 144.64-22.95L144.64-22.95Q147.04-24.75 149.24-24.85L149.24-24.85Q149.54-24.9 150.34-24.9 151.14-24.9 152.59-24.5L152.59-24.5ZM155.78-19.9L154.88-22.3Q160.33-25 164.43-25.15L164.43-25.15Q167.68-25.15 169.46-24.33 171.23-23.5 172.33-22.03 173.43-20.55 173.43-17.9L173.43-17.9 173.43 0 170.18 0 170.18-1.9Q163.33 0.2 161.38 0.2L161.38 0.2Q161.28 0.2 161.23 0.2L161.23 0.2Q156.73 0.2 155.08-2.55L155.08-2.55Q154.48-3.55 154.41-4.5 154.33-5.45 154.33-6.1L154.33-6.1Q154.33-7.9 155.73-9.33 157.13-10.75 159.08-11.25L159.08-11.25Q162.38-12.1 170.18-12.75L170.18-12.75 170.18-16.8Q170.18-22.25 164.48-22.25L164.48-22.25Q160.48-22.25 155.78-19.9L155.78-19.9ZM157.38-5.7L157.38-5.7Q157.38-2.1 162.33-2.1L162.33-2.1Q166.28-2.1 170.18-3.8L170.18-3.8 170.18-10.95Q162.38-9.85 160.53-9.25L160.53-9.25Q157.38-8.25 157.38-5.7ZM181.68-25.25L181.68-22.25Q185.43-25 188.78-25.15L188.78-25.15Q191.83-25.15 193.48-24.4 195.13-23.65 196.21-22.28 197.28-20.9 197.28-18.4L197.28-18.4 197.28 0 194.03 0 194.03-17.55Q194.03-19.4 193.23-20.4L193.23-20.4Q191.63-22.25 188.33-22.25L188.33-22.25Q185.18-22.1 181.68-20.2L181.68-20.2 181.68 0 178.43 0 178.43-25 181.68-25.25ZM214.13-3.6L214.73-0.9Q213.83 0 211.48 0L211.48 0Q208.18 0 207.03-1.7L207.03-1.7Q205.08-3.55 205.08-6.7L205.08-6.7 205.08-22.1 202.28-22.1 202.73-25 205.08-25 205.08-29.95 208.33-30.25 208.33-25 214.13-25 214.13-22.1 208.33-22.1 208.33-5.9Q208.33-3 211.33-3L211.33-3Q212.63-3 214.13-3.6L214.13-3.6ZM238.57 0L235.42 0 235.42-35 238.82-35 251.67-9.4 264.52-35 267.92-35 267.92 0 264.77 0 264.77-29.2 253.37-6.55 249.97-6.55 238.57-29.2 238.57 0ZM274.12-19.9L273.22-22.3Q278.67-25 282.77-25.15L282.77-25.15Q286.02-25.15 287.8-24.33 289.57-23.5 290.67-22.03 291.77-20.55 291.77-17.9L291.77-17.9 291.77 0 288.52 0 288.52-1.9Q281.67 0.2 279.72 0.2L279.72 0.2Q279.62 0.2 279.57 0.2L279.57 0.2Q275.07 0.2 273.42-2.55L273.42-2.55Q272.82-3.55 272.75-4.5 272.67-5.45 272.67-6.1L272.67-6.1Q272.67-7.9 274.07-9.33 275.47-10.75 277.42-11.25L277.42-11.25Q280.72-12.1 288.52-12.75L288.52-12.75 288.52-16.8Q288.52-22.25 282.82-22.25L282.82-22.25Q278.82-22.25 274.12-19.9L274.12-19.9ZM275.72-5.7L275.72-5.7Q275.72-2.1 280.67-2.1L280.67-2.1Q284.62-2.1 288.52-3.8L288.52-3.8 288.52-10.95Q280.72-9.85 278.87-9.25L278.87-9.25Q275.72-8.25 275.72-5.7ZM300.02-25.25L300.02-22.25Q303.77-25 307.12-25.15L307.12-25.15Q310.17-25.15 311.82-24.4 313.47-23.65 314.54-22.28 315.62-20.9 315.62-18.4L315.62-18.4 315.62 0 312.37 0 312.37-17.55Q312.37-19.4 311.57-20.4L311.57-20.4Q309.97-22.25 306.67-22.25L306.67-22.25Q303.52-22.1 300.02-20.2L300.02-20.2 300.02 0 296.77 0 296.77-25 300.02-25.25ZM322.57-19.9L321.67-22.3Q327.12-25 331.22-25.15L331.22-25.15Q334.47-25.15 336.24-24.33 338.02-23.5 339.12-22.03 340.22-20.55 340.22-17.9L340.22-17.9 340.22 0 336.97 0 336.97-1.9Q330.12 0.2 328.17 0.2L328.17 0.2Q328.07 0.2 328.02 0.2L328.02 0.2Q323.52 0.2 321.87-2.55L321.87-2.55Q321.27-3.55 321.19-4.5 321.12-5.45 321.12-6.1L321.12-6.1Q321.12-7.9 322.52-9.33 323.92-10.75 325.87-11.25L325.87-11.25Q329.17-12.1 336.97-12.75L336.97-12.75 336.97-16.8Q336.97-22.25 331.27-22.25L331.27-22.25Q327.27-22.25 322.57-19.9L322.57-19.9ZM324.17-5.7L324.17-5.7Q324.17-2.1 329.12-2.1L329.12-2.1Q333.07-2.1 336.97-3.8L336.97-3.8 336.97-10.95Q329.17-9.85 327.32-9.25L327.32-9.25Q324.17-8.25 324.17-5.7ZM348.31-9.65L348.31-9.65Q344.61-11.5 344.61-16.6L344.61-16.6Q344.61-20.8 347.51-23 350.41-25.2 354.91-25.2L354.91-25.2Q356.11-25.2 357.86-24.95L357.86-24.95 367.26-25.2 367.16-23.3 361.71-23.3Q364.46-21.25 364.46-17.13 364.46-13 361.71-10.78 358.96-8.55 354.61-8.55L354.61-8.55Q351.81-8.55 349.96-9.05L349.96-9.05Q349.01-8.15 349.01-6.95L349.01-6.95Q349.01-5.25 350.89-4.5 352.76-3.75 355.31-3.4L355.31-3.4Q360.96-2.65 363.46-1.3L363.46-1.3Q367.06 0.7 367.06 4.85 367.06 9 363.11 11L363.11 11Q360.11 12.5 355.86 12.5 351.61 12.5 349.31 11.85L349.31 11.85Q343.26 10.1 343.26 5.35 343.26 0.6 348.61-2.7L348.61-2.7Q346.51-4.25 346.51-6.3 346.51-8.35 348.31-9.65ZM363.81 4.8L363.81 4.8Q363.81 1.55 359.51 0.3L359.51 0.3Q358.31-0.05 355.21-0.55 352.11-1.05 350.36-1.75L350.36-1.75Q346.51 1.45 346.51 4.45L346.51 4.45Q346.51 5.75 346.91 6.6 347.31 7.45 348.31 8.1L348.31 8.1Q350.51 9.6 355.01 9.6L355.01 9.6Q360.91 9.6 363.01 7.1L363.01 7.1Q363.81 6.15 363.81 4.8ZM361.06-17.25L361.06-17.25Q361.06-22.55 354.76-22.55L354.76-22.55Q351.76-22.55 349.81-21.18 347.86-19.8 347.86-16.98 347.86-14.15 349.26-12.68 350.66-11.2 353.99-11.2 357.31-11.2 359.19-12.8 361.06-14.4 361.06-17.25ZM372.61-12.3L372.61-11.5Q372.61-2.7 381.01-2.7L381.01-2.7Q384.56-2.7 387.51-3.65L387.51-3.65Q388.26-3.9 388.56-4.05L388.56-4.05 389.31-1.4Q387.56-0.35 382.96 0.1L382.96 0.1Q381.66 0.2 380.21 0.2L380.21 0.2Q376.01 0.2 373.21-1.9L373.21-1.9Q369.36-4.75 369.36-11.4 369.36-18.05 372.84-21.63 376.31-25.2 381.26-25.2 386.21-25.2 388.71-22L388.71-22Q390.61-19.45 390.61-15.25L390.61-15.25Q390.61-14.25 390.51-13.15L390.51-13.15 372.66-13.15Q372.61-12.75 372.61-12.3L372.61-12.3ZM381.46-22.1L381.46-22.1Q378.36-22.1 376.16-20.23 373.96-18.35 373.11-15.4L373.11-15.4 387.66-15.4Q387.41-20.95 383.36-21.85L383.36-21.85Q382.46-22.1 381.46-22.1ZM409.26-24.5L407.96-21.5Q407.16-21.95 406.26-21.95 405.36-21.95 405.26-21.9L405.26-21.9Q403.36-21.9 401.43-20.53 399.51-19.15 398.16-17.45L398.16-17.45 398.16 0 394.91 0 394.91-25 398.16-25.25 398.16-19.65Q400.01-22 401.31-22.95L401.31-22.95Q403.71-24.75 405.91-24.85L405.91-24.85Q406.21-24.9 407.01-24.9 407.81-24.9 409.26-24.5L409.26-24.5Z" opacity="1" transform="matrix(1,0,0,1,0,0)" fill="#152232" class="wordmark-text-0" data-fill-palette-color="primary" id="text-0"></path></svg></g></svg></g></svg></g></svg></g><g transform="matrix(1,0,0,1,166.71831591413763,0)"><svg viewBox="0 0 64.06096817172465 64.06096817172465" height="64.06096817172465" width="64.06096817172465"><g><svg xmlns="http://www.w3.org/2000/svg" xmlns:xlink="http://www.w3.org/1999/xlink" version="1.1" x="0" y="0" viewBox="8.800000000000004 8 83.6 83.6" enable-background="new 0 0 100 100" xml:space="preserve" height="64.06096817172465" width="64.06096817172465" class="icon-icon-0" data-fill-palette-color="accent" id="icon-0"><g fill="#5ebc67" data-fill-palette-color="accent"><path fill="#5ebc67" d="M50.6 91.6c-23.1 0-41.8-18.8-41.8-41.8 0-23.1 18.8-41.8 41.8-41.8 23.1 0 41.8 18.8 41.8 41.8C92.4 72.9 73.6 91.6 50.6 91.6zM50.6 9.9c-22 0-39.8 17.9-39.8 39.8s17.9 39.8 39.8 39.8c22 0 39.8-17.9 39.8-39.8S72.5 9.9 50.6 9.9z" data-fill-palette-color="accent"></path><path fill="#5ebc67" d="M50.6 82.4c-18 0-32.7-14.6-32.7-32.7 0-18 14.6-32.7 32.7-32.7 18 0 32.7 14.6 32.7 32.7C83.2 67.8 68.6 82.4 50.6 82.4zM50.6 19.1c-16.9 0-30.7 13.8-30.7 30.7 0 16.9 13.8 30.7 30.7 30.7s30.7-13.8 30.7-30.7C81.2 32.9 67.5 19.1 50.6 19.1z" data-fill-palette-color="accent"></path><path fill="#5ebc67" d="M69.8 66.6c-0.6 0-1-0.4-1-1v-9.2c-2.3-0.7-4.1-2.7-4.6-5-1.6-8.1 0.3-13 2.1-15.7 1.6-2.5 2.9-3.1 3-3.2l1.5-0.8v23.9c0 0 0 0 0 0v10C70.8 66.2 70.3 66.6 69.8 66.6zM68.8 35.6c-0.2 0.3-0.5 0.7-0.8 1.1-1.6 2.4-3.2 6.8-1.8 14.2 0.3 1.4 1.3 2.7 2.6 3.3V35.6z" data-fill-palette-color="accent"></path><path fill="#5ebc67" d="M54.3 66.3c-0.6 0-1-0.4-1-1v-17c-1-0.1-2.4-0.7-3.7-2.2C48 44 48 35.6 48 34c0-0.5 0.5-1 1-1 0 0 0 0 0 0 0.6 0 1 0.5 1 1 0 3.8 0.3 9.7 1.2 10.9 1.3 1.7 2.9 1.5 2.9 1.5l1.1-0.1v19C55.3 65.9 54.9 66.3 54.3 66.3z" data-fill-palette-color="accent"></path><path fill="#5ebc67" d="M54.3 66.3c-0.6 0-1-0.4-1-1v-19l1.1 0.1c0.1 0 1.7 0.2 2.9-1.5 0.9-1.2 1.3-7.1 1.2-10.9 0-0.6 0.4-1 1-1 0 0 0 0 0 0 0.5 0 1 0.4 1 1 0 1.7 0 10-1.6 12.2-1.2 1.6-2.7 2.1-3.7 2.2v17C55.3 65.9 54.9 66.3 54.3 66.3z" data-fill-palette-color="accent"></path><path fill="#5ebc67" d="M52.7 45.7c-0.5 0-1-0.4-1-1l-0.3-10.6c0-0.6 0.4-1 1-1 0.5 0 1 0.4 1 1l0.3 10.6C53.8 45.2 53.3 45.7 52.7 45.7 52.8 45.7 52.8 45.7 52.7 45.7z" data-fill-palette-color="accent"></path><path fill="#5ebc67" d="M55.9 45.7C55.9 45.7 55.9 45.7 55.9 45.7c-0.6 0-1-0.5-1-1L55.2 34c0-0.6 0.5-1 1-1 0.6 0 1 0.5 1 1l-0.3 10.6C56.9 45.2 56.4 45.7 55.9 45.7z" data-fill-palette-color="accent"></path><g fill="#5ebc67" data-fill-palette-color="accent"><path fill="#5ebc67" d="M36.4 66.4c-0.6 0-1-0.4-1-1V54.1c0-0.6 0.4-1 1-1s1 0.4 1 1v11.3C37.4 66 37 66.4 36.4 66.4z" data-fill-palette-color="accent"></path><g fill="#5ebc67" data-fill-palette-color="accent"><path fill="#5ebc67" d="M36.4 55.1c-7.1 0-9.7-7.5-9.7-12.2 0-4.6 2.1-9.3 2.1-9.5l0.3-0.6h14.6l0.3 0.6c0.1 0.2 2.1 5 2.1 9.5C46.1 47.6 43.5 55.1 36.4 55.1zM30.5 34.8c-0.5 1.4-1.7 4.9-1.7 8.1 0 3.9 2.1 10.2 7.7 10.2 5.6 0 7.7-6.3 7.7-10.2 0-3.3-1.2-6.8-1.7-8.1H30.5z" data-fill-palette-color="accent"></path><path fill="#5ebc67" d="M44.3 66.4H28.6c-0.6 0-1-0.4-1-1 0-0.6 0.4-1 1-1h15.8c0.6 0 1 0.4 1 1C45.3 66 44.9 66.4 44.3 66.4z" data-fill-palette-color="accent"></path><path fill="#5ebc67" d="M45.1 42.3H33.1c-0.6 0-1-0.4-1-1 0-0.6 0.4-1 1-1h11.9c0.6 0 1 0.4 1 1C46.1 41.9 45.6 42.3 45.1 42.3z" data-fill-palette-color="accent"></path></g></g></g></svg></g></svg></g><g></g></svg></g></svg></g><defs></defs></svg><rect width="395.52" height="135.80204955678164" fill="none" stroke="none" visibility="hidden"></rect></g></svg></g></svg>